<?xml version="1.0" encoding="UTF-8" standalone="no"?> <svg width="24" height="24" viewBox="0 0 24 24" fill="none" xmlns="http://www.w3.org/2000/svg">
<path fill-rule="evenodd" clip-rule="evenodd" d="M2.04938 11H3C3.55228 11 4 11.4477 4 12C4 12.5523 3.55228 13 3 13H2.04938C2.51844 17.7244 6.27558 21.4816 11 21.9506V21C11 20.4477 11.4477 20 12 20C12.5523 20 13 20.4477 13 21V21.9506C17.7244 21.4816 21.4816 17.7244 21.9506 13H21C20.4477 13 20 12.5523 20 12C20 11.4477 20.4477 11 21 11H21.9506C21.4816 6.27558 17.7244 2.51844 13 2.04938V3C13 3.55228 12.5523 4 12 4C11.4477 4 11 3.55228 11 3V2.04938C6.27558 2.51844 2.51844 6.27558 2.04938 11ZM0 12C0 5.37258 5.37258 0 12 0C18.6274 0 24 5.37258 24 12C24 18.6274 18.6274 24 12 24C5.37258 24 0 18.6274 0 12ZM12 6C12.5523 6 13 6.44772 13 7V11.5194L17.6247 15.2191C18.056 15.5641 18.1259 16.1934 17.7809 16.6247C17.4359 17.056 16.8066 17.1259 16.3753 16.7809L11.3753 12.7809C11.1381 12.5911 11 12.3038 11 12V7C11 6.44772 11.4477 6 12 6Z" fill="#293644"/>
</svg>
